<svg width="182.4" height="32" viewBox="0 0 228 41" fill="none" xmlns="http://www.w3.org/2000/svg" ><g><path d="M36.5882 0H15.4118C14.6321 0 14 0.671573 14 1.5V10.5C14 11.3284 14.6321 12 15.4118 12H36.5882C37.3679 12 38 11.3284 38 10.5V1.5C38 0.671573 37.3679 0 36.5882 0Z" fill="rgb(9, 26, 79)"></path><path d="M0 6C0 9.31371 2.68629 12 6 12C9.31371 12 12 9.31371 12 6C12 2.68629 9.31371 0 6 0C2.68629 0 0 2.68629 0 6Z" fill="rgb(239, 68, 35)"></path><rect y="28" width="23.5" height="12" rx="6" fill="rgb(239, 68, 35)"></rect><path d="M15.4118 14C14.6321 14 14 14.6716 14 15.5L14 24.5C14 25.3284 14.6321 26 15.4118 26L36.5882 26C37.3679 26 38 25.3284 38 24.5V15.5C38 14.6716 37.3679 14 36.5882 14L15.4118 14Z" fill="rgba(255, 210, 41)"></path><path d="M10.5 14H1.5C0.671573 14 0 14.6716 0 15.5V24.5C0 25.3284 0.671573 26 1.5 26H10.5C11.3284 26 12 25.3284 12 24.5V15.5C12 14.6716 11.3284 14 10.5 14Z" fill="rgb(9, 26, 79)"></path></g><g><path d="M70.2111 23.0499C70.4223 23.0499 70.6252 22.9654 70.7773 22.8134C70.9209 22.6698 71.0054 22.467 71.0054 22.2558V17.677C71.0054 17.4658 70.9209 17.2631 70.7773 17.1111C70.6252 16.9675 70.4223 16.883 70.2111 16.883H62.8869C62.6757 16.883 62.4815 16.7985 62.3294 16.6464C62.1773 16.5028 62.0928 16.3 62.0928 16.0888V11.1299C62.0928 10.9187 62.1773 10.7161 62.3294 10.564C62.4815 10.4204 62.6757 10.3359 62.8869 10.3359H75.3897C75.829 10.3359 76.1838 9.98102 76.1838 9.54173V4.79405C76.1838 4.58285 76.0993 4.38017 75.9472 4.22811C75.8036 4.08449 75.6009 4 75.3897 4H56.0443C55.8415 4 55.6386 4.08449 55.4866 4.22811C55.3345 4.38017 55.25 4.58285 55.25 4.79405V34.4629C55.25 34.6741 55.3345 34.8769 55.4866 35.0205C55.6386 35.1725 55.8415 35.257 56.0443 35.257H61.2988C61.51 35.257 61.7127 35.1725 61.8647 35.0205C62.0083 34.8769 62.0928 34.6741 62.0928 34.4629V23.844C62.0928 23.6328 62.1773 23.43 62.3294 23.2779C62.4815 23.1343 62.6757 23.0499 62.8869 23.0499H70.2111Z" fill="rgb(9, 26, 79)"></path><path d="M73.2452 24.6633C73.2452 31.3371 78.1448 35.7723 84.9031 35.7723C91.6191 35.7723 96.5189 31.3371 96.5189 24.6633C96.5189 17.9895 91.6191 13.5122 84.9031 13.5122C78.1448 13.5122 73.2452 17.9895 73.2452 24.6633ZM79.7923 24.6211C79.7923 21.4532 81.8619 19.3412 84.9031 19.3412C87.9021 19.3412 89.9718 21.4532 89.9718 24.6211C89.9718 27.8313 87.9021 29.9432 84.9031 29.9432C81.8619 29.9432 79.7923 27.8313 79.7923 24.6211Z" fill="rgb(9, 26, 79)"></path><path d="M113.197 14.7717C113.197 14.3915 112.926 14.062 112.546 13.9944C111.896 13.8846 111.279 13.834 110.705 13.834C108.474 13.834 106.844 14.704 105.822 16.0895C105.703 16.2416 105.509 16.3092 105.323 16.2585C105.137 16.2078 105.002 16.0473 104.977 15.853C104.943 15.5151 104.901 15.1687 104.867 14.8815C104.825 14.476 104.487 14.1719 104.081 14.1719H99.4604C99.2577 14.1719 99.055 14.2563 98.9029 14.3999C98.7509 14.552 98.6664 14.7548 98.6664 14.966V34.4551C98.6664 34.8944 99.0296 35.2493 99.4604 35.2493H104.377C104.588 35.2493 104.791 35.1648 104.943 35.0127C105.087 34.8691 105.171 34.6663 105.171 34.4551V26.0834C105.171 21.9017 107.41 20.2543 111.127 20.2543H112.403C112.614 20.2543 112.816 20.1698 112.969 20.0178C113.112 19.8742 113.197 19.6714 113.197 19.4602V14.7717Z" fill="rgb(9, 26, 79)"></path><path d="M121.49 35.2525C121.929 35.2525 122.284 34.8977 122.284 34.4584V23.9324C122.284 20.3843 124.185 19.3705 126.043 19.3705C128.113 19.3705 129.465 20.6378 129.465 23.2566V34.4584C129.465 34.8977 129.819 35.2525 130.259 35.2525H135.175C135.615 35.2525 135.97 34.8977 135.97 34.4584V23.9324C135.97 20.342 137.828 19.3283 139.687 19.3283C141.756 19.3283 143.15 20.5955 143.15 23.2566V34.4584C143.15 34.8977 143.513 35.2525 143.944 35.2525H148.861C149.072 35.2525 149.275 35.168 149.427 35.016C149.571 34.8723 149.655 34.6696 149.655 34.4584V21.4403C149.655 16.625 146.952 13.457 141.503 13.457C138.783 13.457 136.51 14.6398 135.268 16.4899C135.184 16.625 135.032 16.7095 134.871 16.7095C134.702 16.7095 134.55 16.625 134.466 16.4899C133.207 14.6398 131.289 13.457 128.451 13.457C125.942 13.457 124.092 14.4116 122.926 15.5774C122.799 15.7042 122.613 15.7549 122.436 15.6957C122.267 15.645 122.14 15.5015 122.106 15.3241C122.064 15.1044 122.022 14.8763 121.988 14.682C121.912 14.3019 121.583 14.0315 121.203 14.0315H116.573C116.371 14.0315 116.168 14.116 116.016 14.2596C115.864 14.4117 115.779 14.6144 115.779 14.8256V34.4584C115.779 34.8977 116.142 35.2525 116.573 35.2525H121.49Z" fill="rgb(9, 26, 79)"></path><path d="M152.587 28.5787C152.359 28.5787 152.139 28.6801 151.987 28.8491C151.835 29.018 151.767 29.2461 151.793 29.4742C152.257 33.2504 155.645 35.8016 160.823 35.8016C166.314 35.8016 170.158 33.0561 170.158 28.5365C170.158 25.1574 168.266 23.5523 164.802 22.7919H164.794C164.718 22.775 161.018 21.981 160.874 21.9472H160.866C159.387 21.6092 158.585 21.0602 158.585 20.0887C158.585 18.9482 159.514 18.1879 160.992 18.1879C162.319 18.1879 163.155 18.8806 163.383 19.9619C163.459 20.3336 163.78 20.5955 164.16 20.5955C165.309 20.5955 167.548 20.5955 168.773 20.5955C169.001 20.5955 169.221 20.4941 169.373 20.3251C169.516 20.1562 169.592 19.9281 169.559 19.7C169.119 15.9323 165.841 13.457 161.288 13.457C156.219 13.457 152.46 15.9914 152.46 20.3843C152.46 24.1014 154.361 25.791 158.247 26.6358L162.133 27.4805C163.696 27.8185 164.034 28.4942 164.034 29.1278C164.034 30.226 163.104 30.9441 161.077 30.9441C159.37 30.9441 158.323 30.2852 158.01 29.1617C157.909 28.8153 157.596 28.5787 157.242 28.5787C156.109 28.5787 153.82 28.5787 152.587 28.5787Z" fill="rgb(9, 26, 79)"></path><path d="M171.712 24.6633C171.712 31.3371 176.612 35.7723 183.37 35.7723C190.086 35.7723 194.986 31.3371 194.986 24.6633C194.986 17.9895 190.086 13.5122 183.37 13.5122C176.612 13.5122 171.712 17.9895 171.712 24.6633ZM178.259 24.6211C178.259 21.4532 180.329 19.3412 183.37 19.3412C186.369 19.3412 188.439 21.4532 188.439 24.6211C188.439 27.8313 186.369 29.9432 183.37 29.9432C180.329 29.9432 178.259 27.8313 178.259 24.6211Z" fill="rgb(9, 26, 79)"></path><path d="M211.645 14.7717C211.645 14.3915 211.375 14.062 210.995 13.9944C210.344 13.8846 209.728 13.834 209.153 13.834C206.965 13.834 205.352 14.6703 204.329 16.0135C204.194 16.174 203.983 16.2416 203.789 16.1909C203.586 16.1317 203.443 15.9629 203.417 15.7517C203.383 15.4475 203.35 15.1434 203.316 14.8815C203.274 14.476 202.936 14.1719 202.53 14.1719H197.909C197.706 14.1719 197.504 14.2563 197.352 14.3999C197.199 14.552 197.115 14.7548 197.115 14.966V34.4551C197.115 34.8944 197.47 35.2493 197.909 35.2493H202.826C203.037 35.2493 203.24 35.1648 203.392 35.0127C203.536 34.8691 203.62 34.6663 203.62 34.4551V26.0834C203.62 21.9017 205.859 20.2543 209.576 20.2543H210.851C211.062 20.2543 211.265 20.1698 211.417 20.0178C211.561 19.8742 211.645 19.6714 211.645 19.4602V14.7717Z" fill="rgb(9, 26, 79)"></path><path d="M227.145 30.4688C227.111 30.2492 226.993 30.0549 226.807 29.9282C226.629 29.8014 226.401 29.7592 226.19 29.8014C225.717 29.9113 225.261 29.962 224.855 29.962C223.335 29.962 222.279 29.1595 222.279 26.4984V21.0495C222.279 20.6102 222.634 20.2554 223.073 20.2554H226.173C226.612 20.2554 226.967 19.9006 226.967 19.4613V14.9163C226.967 14.477 226.612 14.1223 226.173 14.1223H223.073C222.87 14.1223 222.667 14.0378 222.515 13.8857C222.363 13.7421 222.279 13.5393 222.279 13.3281V8.36924C222.279 8.15805 222.194 7.95536 222.051 7.8033C221.899 7.65969 221.696 7.5752 221.484 7.5752H216.568C216.365 7.5752 216.162 7.65969 216.01 7.8033C215.858 7.95536 215.774 8.15805 215.774 8.36924V13.2268C215.774 13.438 215.689 13.6323 215.546 13.7843C215.394 13.9364 215.191 14.0209 214.98 14.0209H214.397C213.958 14.0209 213.603 14.3757 213.603 14.815V19.4613C213.603 19.9006 213.958 20.2554 214.397 20.2554H214.98C215.419 20.2554 215.774 20.6102 215.774 21.0495V27.85C215.774 33.7635 218.815 35.7487 223.166 35.7487C224.669 35.7487 226.055 35.5038 227.187 35.073C227.533 34.9378 227.736 34.583 227.685 34.2197C227.55 33.2989 227.297 31.5333 227.145 30.4688Z" fill="rgb(9, 26, 79)"></path></g></svg>