<svg xmlns="http://www.w3.org/2000/svg" width="150" height="51" viewBox="0 0 150 51" fill="none"><g clip-path="url(#clip0_1_2)"><path d="M25.6966 50.7694C25.6527 50.7577 25.6089 50.7402 25.5651 50.7358C25.492 50.727 25.419 50.727 25.346 50.7226C24.9062 50.6978 24.4665 50.6744 24.0283 50.6496C23.9727 50.6467 23.9187 50.6408 23.8646 50.635C23.5681 50.5985 23.5812 50.6394 23.6046 50.3253C23.6324 49.9601 23.6645 49.5949 23.6966 49.2296C23.72 48.955 23.7434 48.6818 23.7668 48.4072C23.7916 48.096 23.815 47.7863 23.8398 47.4751C23.8442 47.4211 23.8544 47.367 23.8632 47.3115C23.8676 47.2823 23.9129 47.2472 23.9421 47.2472C23.9786 47.2472 24.0151 47.2472 24.0516 47.2472C24.1802 47.256 24.3073 47.2648 24.4358 47.2735C24.4914 47.2779 24.5454 47.2852 24.6009 47.2882C24.9691 47.3071 24.9471 47.3437 24.9471 46.9697C24.9471 46.3649 24.9471 45.7601 24.9471 45.1553C24.9471 45.0822 24.9471 45.0092 24.9442 44.9347C24.9413 44.869 24.9077 44.831 24.8463 44.8266C24.6184 44.8091 24.3891 44.7959 24.1612 44.7769C23.777 44.7463 23.3942 44.7141 23.01 44.679C22.7632 44.6571 22.5177 44.6338 22.2708 44.6045C21.9246 44.5651 21.5784 44.5242 21.2336 44.476C20.8158 44.4161 20.4009 44.3474 19.9831 44.2846C19.4309 44.1999 18.8816 44.0947 18.3338 43.9822C17.1038 43.7295 15.8854 43.4271 14.6817 43.0721C12.0097 42.2818 9.44008 41.2446 6.97998 39.9356C6.63668 39.753 6.65859 39.8085 6.83682 39.4828C7.4869 38.2819 8.14137 37.084 8.79438 35.8847C8.83382 35.8116 8.87619 35.7415 8.91709 35.6699C8.93316 35.6421 8.98283 35.629 9.01497 35.6451C9.07194 35.6728 9.13038 35.702 9.18589 35.7313C11.272 36.8415 13.4472 37.7356 15.7057 38.4251C16.9869 38.8166 18.2841 39.1395 19.5975 39.3966C20.2987 39.5339 21.0043 39.6537 21.7113 39.7545C22.246 39.8304 22.7836 39.8962 23.3227 39.9459C23.7887 39.9897 24.2532 40.035 24.7207 40.0583C24.766 40.0613 24.8127 40.0627 24.858 40.0642C24.9077 40.0642 24.9428 40.032 24.9442 39.9795C24.9471 39.9064 24.9486 39.8334 24.9486 39.7589C24.9486 38.1095 24.9486 36.4588 24.9486 34.8095C24.9486 34.4662 24.9778 34.5056 24.6462 34.4735C24.1261 34.4252 23.6061 34.3756 23.0875 34.3128C22.6419 34.2587 22.1993 34.1842 21.7552 34.117C21.2482 34.041 20.7442 33.9417 20.2417 33.8365C19.6486 33.7138 19.0613 33.575 18.4755 33.4202C18.214 33.3501 18.2286 33.3588 18.1264 33.5809C17.5902 34.7466 17.0556 35.9124 16.5209 37.0782C16.5092 37.103 16.499 37.1278 16.4873 37.1527C16.3427 37.4609 16.3865 37.4492 16.0695 37.3426C14.5823 36.8386 13.1375 36.2353 11.7395 35.5238C11.6825 35.4946 11.6285 35.4595 11.5773 35.4245C11.5656 35.4157 11.5569 35.3894 11.5613 35.3763C11.5729 35.3324 11.589 35.2886 11.608 35.2477C11.8388 34.7496 12.0711 34.2499 12.3034 33.7518C12.597 33.1207 12.8921 32.4896 13.1857 31.8585C13.2164 31.7928 13.2456 31.7241 13.2734 31.6569C13.288 31.6233 13.2734 31.578 13.2412 31.562C13.177 31.5284 13.1112 31.4962 13.0455 31.4626C12.6014 31.2435 12.1558 31.0273 11.7146 30.8038C11.3699 30.6299 11.3173 30.5934 11.3261 30.5598C11.3611 30.4166 11.4488 30.2968 11.5174 30.1683C11.7512 29.733 11.9893 29.2976 12.2259 28.8637C12.2654 28.7907 12.3048 28.7191 12.3501 28.6505C12.3618 28.6329 12.4027 28.6183 12.4202 28.6256C12.4874 28.6519 12.5532 28.687 12.6175 28.722C13.0616 28.9587 13.5144 29.1837 13.9702 29.397C14.036 29.4276 14.1032 29.4583 14.1704 29.4875C14.2361 29.5167 14.277 29.5036 14.3062 29.4452C14.3427 29.3707 14.3778 29.2962 14.4129 29.2217C15.2952 27.3284 16.1761 25.4351 17.0585 23.5404C19.913 17.4106 22.7675 11.2823 25.6221 5.15247C25.6644 5.0619 25.7185 4.9757 25.7375 4.86614C25.7126 4.84423 25.6878 4.81939 25.6586 4.79894C25.5987 4.75657 25.5344 4.72151 25.4745 4.67915C24.9939 4.33146 24.6915 3.86399 24.5512 3.28987C24.5089 3.12041 24.487 2.94803 24.487 2.77272C24.487 2.64417 24.484 2.51561 24.487 2.38852C24.5191 1.30894 25.2846 0.287794 26.4927 0.0525947C27.0186 -0.0496657 27.5358 -0.0131441 28.0325 0.185533C28.6782 0.444106 29.1281 0.904278 29.4013 1.54121C29.5971 1.99846 29.6687 2.47617 29.6029 2.96702C29.5109 3.6507 29.1953 4.21459 28.6373 4.6324C28.5715 4.68207 28.5043 4.72882 28.4401 4.77995C28.4284 4.78871 28.4182 4.81501 28.4225 4.82816C28.443 4.88805 28.4678 4.94795 28.4941 5.00638C28.8316 5.75873 29.1676 6.51107 29.5065 7.26342C31.4962 11.6928 33.4874 16.1206 35.477 20.55C35.5106 20.6245 35.5442 20.7004 35.5764 20.7764C35.6071 20.848 35.5881 20.8845 35.5194 20.8947C35.2565 20.9327 34.9935 20.9707 34.7305 21.0072C34.377 21.0569 34.022 21.1066 33.6685 21.1562C33.3515 21.2001 33.033 21.2439 32.7146 21.2877C32.3961 21.3315 32.0791 21.3754 31.7621 21.4206C31.4261 21.4674 31.0901 21.5156 30.7541 21.5623C30.6445 21.577 30.5364 21.5945 30.4268 21.6062C30.3903 21.6106 30.3538 21.5945 30.3363 21.5565C30.2939 21.4645 30.2515 21.3739 30.2121 21.2819C29.5927 19.8634 28.9718 18.4449 28.3524 17.0264C28.3261 16.9679 28.2998 16.9095 28.2706 16.8525C28.2662 16.8438 28.2414 16.8438 28.2253 16.8452C28.2209 16.8452 28.2122 16.8598 28.2136 16.8686C28.2282 17.171 28.2443 17.4719 28.2604 17.7743C28.2633 17.8386 28.2721 17.9014 28.2765 17.9657C28.3027 18.4142 28.3261 18.8627 28.3524 19.3112C28.3787 19.7407 28.4094 20.1701 28.4357 20.6011C28.462 21.0306 28.4854 21.4615 28.5117 21.891C28.5233 22.0926 28.5409 22.2928 28.5526 22.4944C28.5599 22.6229 28.6022 22.6288 28.7133 22.6142C28.9222 22.5879 29.1311 22.5572 29.34 22.5265C29.657 22.4812 29.9754 22.4345 30.2924 22.3877C30.7278 22.3249 31.1631 22.2621 31.5985 22.1978C31.9155 22.1511 32.2325 22.1043 32.5509 22.0576C32.8767 22.0094 33.2039 21.9612 33.5297 21.9144C33.8204 21.872 34.1097 21.8297 34.4004 21.7873C34.8722 21.7187 35.3441 21.65 35.8145 21.5813C36.2498 21.5185 36.6852 21.4572 37.1205 21.3943C37.5559 21.3315 37.9912 21.2673 38.4265 21.203C38.4631 21.1971 38.4996 21.1913 38.5346 21.1854C38.7275 21.1577 38.8969 21.2117 39.0503 21.3271C39.1467 21.3987 39.2285 21.4849 39.3016 21.5799C39.4038 21.7099 39.4886 21.8516 39.5645 21.9991C39.6741 22.211 39.7661 22.4316 39.8421 22.6565C39.978 23.0656 40.0963 23.479 40.146 23.91C40.1869 24.2576 40.1883 24.6053 40.143 24.9516C40.1284 25.0611 40.1138 25.1692 40.0934 25.2773C40.0481 25.5315 39.9677 25.774 39.864 26.0092C39.7267 26.3204 39.5821 26.6257 39.4068 26.9164C39.3162 27.0654 39.2212 27.2115 39.1029 27.3401C39.0343 27.4131 38.9612 27.4847 38.8823 27.5446C38.7684 27.6308 38.6413 27.66 38.4937 27.6381C37.7779 27.53 37.0606 27.4306 36.3433 27.3269C35.7079 27.2349 35.0738 27.1428 34.4384 27.0494C33.7488 26.9486 33.0608 26.8434 32.3713 26.744C31.8001 26.6608 31.2274 26.5819 30.6562 26.5001C30.0938 26.4183 29.5328 26.3335 28.9704 26.2503C28.9251 26.2444 28.8798 26.2444 28.8345 26.2473C28.8214 26.2473 28.8053 26.2663 28.7965 26.2809C28.7878 26.2955 28.7848 26.316 28.7848 26.3335C28.7848 26.389 28.7848 26.4431 28.7892 26.4986C28.8126 26.8828 28.836 27.267 28.8593 27.6512C28.871 27.8426 28.8842 28.0354 28.8959 28.2268C28.9251 28.6841 28.9543 29.1413 28.982 29.5986C29.0054 29.974 29.0288 30.348 29.0507 30.7234C29.0536 30.7687 29.0551 30.8155 29.0507 30.8607C29.0478 30.887 29.0332 30.9133 29.0025 30.9206C28.9762 30.9279 28.9499 30.9382 28.9236 30.9396C28.8418 30.9469 28.7585 30.9528 28.6767 30.9557C27.7053 30.9937 26.7338 30.9951 25.7608 30.9557C25.5227 30.9455 25.2846 30.9236 25.0479 30.906C24.9968 30.9016 24.9603 30.8637 24.9632 30.8169C24.9793 30.5145 24.9954 30.2136 25.0129 29.9112C25.0173 29.8381 25.026 29.7651 25.0304 29.6921C25.0567 29.2436 25.0786 28.7951 25.1064 28.3466C25.1327 27.9171 25.1634 27.4876 25.1911 27.0567C25.2101 26.7543 25.2291 26.4533 25.2466 26.1509C25.2715 25.7302 25.2948 25.3095 25.3197 24.8887C25.3474 24.4227 25.3781 23.9552 25.4073 23.4892C25.4102 23.4439 25.4132 23.3972 25.4161 23.3519C25.4409 22.9034 25.4643 22.4549 25.492 22.0064C25.5183 21.5857 25.549 21.165 25.5753 20.7443C25.6016 20.3235 25.6235 19.9028 25.6498 19.4821C25.6776 19.0161 25.7083 18.5486 25.7375 18.0826C25.7448 17.973 25.7492 17.8634 25.7565 17.7539C25.7725 17.488 25.7901 17.2236 25.8061 16.9577C25.8091 16.9037 25.8061 16.8481 25.8032 16.7941C25.8032 16.7882 25.793 16.7824 25.7871 16.7795C25.7798 16.7766 25.7638 16.7751 25.7623 16.7795C25.7331 16.8262 25.7024 16.8715 25.679 16.9197C25.4643 17.3857 25.2525 17.8532 25.0392 18.3192C23.8953 20.8188 22.75 23.3168 21.6105 25.8178C21.1168 26.9018 20.6405 27.9931 20.157 29.0814C19.8663 29.7344 19.5785 30.3874 19.2892 31.0419C19.2629 31.1003 19.241 31.1602 19.222 31.2201C19.2176 31.2318 19.2322 31.2581 19.2454 31.2654C19.2775 31.2815 19.3126 31.2932 19.3477 31.3034C19.7991 31.4246 20.2548 31.5254 20.7121 31.6219C21.2862 31.7431 21.8633 31.8454 22.4432 31.9359C22.7778 31.9871 23.1152 32.0309 23.4512 32.0703C23.8968 32.1215 24.3438 32.1697 24.7908 32.2106C25.1195 32.2398 25.4497 32.2617 25.7784 32.2749C26.7323 32.3143 27.6848 32.3172 28.6387 32.2749C29.0317 32.2573 29.4247 32.2223 29.8177 32.1916C30.0821 32.1711 30.348 32.1478 30.6124 32.1171C30.9586 32.0776 31.3048 32.0382 31.6496 31.9871C32.0572 31.9272 32.4647 31.86 32.8709 31.7884C33.4216 31.692 33.968 31.5751 34.5129 31.448C34.5509 31.4392 34.5772 31.4159 34.5991 31.3735C34.5625 31.2859 34.526 31.1924 34.4851 31.1003C34.022 30.0324 33.5575 28.966 33.0944 27.8981C33.0549 27.8061 33.0184 27.7111 32.9804 27.6191C32.9717 27.5972 32.998 27.5607 33.0199 27.5607C33.0564 27.5607 33.0929 27.5577 33.1294 27.5607C33.4479 27.603 33.7649 27.6454 34.0834 27.6877C34.4281 27.7345 34.7744 27.7812 35.1191 27.8265C35.4741 27.8733 35.8277 27.9215 36.1826 27.9682C36.5186 28.0135 36.8546 28.0573 37.1906 28.1026C37.5456 28.1494 37.8992 28.1976 38.2541 28.2458C38.463 28.2736 38.672 28.3013 38.8809 28.3276C38.9408 28.3349 38.9846 28.3641 39.0109 28.4167C39.0386 28.4737 39.0635 28.5336 39.0898 28.592C39.2358 28.9178 39.3819 29.2436 39.5295 29.5693C39.5514 29.619 39.5777 29.6672 39.6069 29.714C39.6215 29.7373 39.6507 29.749 39.6785 29.7373C39.7384 29.714 39.7968 29.6891 39.8567 29.6643C40.3271 29.4583 40.7902 29.2377 41.2475 29.0054C41.3044 28.9762 41.3629 28.9529 41.4228 28.9309C41.4359 28.9266 41.4607 28.9353 41.4724 28.9456C41.4914 28.9631 41.509 28.9865 41.5206 29.0098C41.8333 29.6117 42.1444 30.2136 42.4556 30.8155C42.4644 30.8315 42.4717 30.8505 42.4717 30.8666C42.4717 30.8827 42.4644 30.906 42.4527 30.9148C42.4001 30.9499 42.3446 30.9835 42.2891 31.0127C41.8157 31.2537 41.3351 31.4831 40.8486 31.6978C40.7727 31.7314 40.6982 31.765 40.6237 31.8001C40.5755 31.822 40.5608 31.8629 40.5828 31.914C40.6193 31.9988 40.6573 32.082 40.6938 32.1653C41.1934 33.277 41.693 34.3873 42.1926 35.499C42.3007 35.74 42.3153 35.7313 42.0758 35.8467C40.6193 36.5479 39.119 37.1322 37.5763 37.6129C37.5237 37.6289 37.4711 37.645 37.4185 37.6596C37.3659 37.6742 37.325 37.6581 37.3031 37.6129C37.271 37.5471 37.2403 37.4814 37.2111 37.4127C36.8546 36.5888 36.4997 35.7634 36.1447 34.9395C35.9781 34.5523 35.8101 34.1652 35.6421 33.7795C35.6129 33.7123 35.5822 33.6451 35.5457 33.5823C35.5355 33.5633 35.5004 33.5502 35.477 33.5487C35.442 33.5458 35.404 33.5531 35.3689 33.5619C34.5509 33.7679 33.7255 33.9359 32.8942 34.0776C32.4691 34.1506 32.0426 34.209 31.616 34.266C31.2259 34.3186 30.8344 34.3654 30.4415 34.4063C30.1317 34.4384 29.8206 34.4574 29.5094 34.4822C29.4086 34.4895 29.3078 34.4924 29.207 34.5027C29.1632 34.5071 29.1208 34.526 29.0726 34.5392C29.0682 34.6093 29.0609 34.6721 29.0595 34.735C29.058 34.9731 29.0595 35.2112 29.0595 35.4493C29.0595 36.8707 29.0595 38.2907 29.0595 39.7121C29.0595 39.8041 29.0624 39.8947 29.0653 39.9868C29.0668 40.032 29.1106 40.0671 29.1588 40.0656C29.1676 40.0656 29.1778 40.0656 29.1866 40.0656C29.7081 40.0291 30.2296 39.9999 30.7497 39.94C31.15 39.8933 31.5517 39.8553 31.952 39.8071C32.2427 39.772 32.5334 39.7326 32.8227 39.6858C33.3018 39.6069 33.781 39.5237 34.2587 39.4375C35.3237 39.2446 36.3755 38.9963 37.4185 38.7085C39.5704 38.1139 41.655 37.3397 43.6623 36.3594C43.8682 36.2586 44.0728 36.1564 44.2787 36.0541C44.3284 36.0293 44.3781 36.0088 44.4292 35.9855C44.4526 36.0059 44.4774 36.0205 44.4906 36.0424C44.5242 36.0965 44.5519 36.1549 44.5811 36.2119C45.2225 37.4478 45.8638 38.6851 46.5051 39.921C46.5343 39.978 46.565 40.035 46.5928 40.0919C46.622 40.1504 46.6059 40.1913 46.5416 40.2263C46.4686 40.2658 46.3955 40.3038 46.3225 40.3403C45.6184 40.6953 44.9055 41.0313 44.1823 41.3454C42.1269 42.235 40.0116 42.9523 37.8393 43.5031C36.8707 43.7485 35.8949 43.9618 34.9132 44.1444C34.228 44.2715 33.5399 44.381 32.8504 44.4731C32.3055 44.5461 31.7591 44.6089 31.2113 44.663C30.5452 44.7287 29.8776 44.7769 29.2099 44.8164C29.1822 44.8178 29.153 44.8178 29.1296 44.8295C29.1077 44.8397 29.0843 44.8602 29.0741 44.8821C29.0624 44.9055 29.0624 44.9362 29.0624 44.9625C29.0624 45.6958 29.0624 46.4292 29.0624 47.1625C29.0624 47.1888 29.0668 47.218 29.0755 47.2429C29.0814 47.2575 29.0975 47.2735 29.1135 47.2794C29.1384 47.2882 29.1676 47.2911 29.1939 47.2896C29.3502 47.2808 29.505 47.2706 29.6599 47.2604C29.7519 47.2546 29.8425 47.2487 29.9345 47.2443C29.9667 47.2429 30.0105 47.2765 30.0149 47.3057C30.0236 47.3685 30.0339 47.4328 30.0397 47.4956C30.0748 47.9251 30.1098 48.3546 30.1434 48.7841C30.1697 49.1215 30.1931 49.4605 30.2194 49.7979C30.2355 50.017 30.2545 50.2362 30.2705 50.4553C30.2735 50.4904 30.2676 50.5283 30.2603 50.5634C30.2574 50.578 30.2399 50.5926 30.2252 50.6014C30.2106 50.6116 30.1916 50.6175 30.1741 50.6204C30.1098 50.6277 30.047 50.635 29.9827 50.6394C29.5518 50.6642 29.1223 50.6876 28.6913 50.7124C28.6095 50.7168 28.5248 50.7066 28.4518 50.7562H25.7009L25.6966 50.7694ZM37.2798 24.17C37.2739 24.712 37.382 25.2218 37.5968 25.7083C37.6829 25.904 37.7911 26.0866 37.943 26.24C38.2264 26.5249 38.5449 26.522 38.8283 26.2313C38.9787 26.0764 39.0839 25.8923 39.1716 25.6981C39.3001 25.4117 39.3834 25.1108 39.4345 24.8011C39.528 24.224 39.4988 23.6558 39.3089 23.0992C39.2402 22.8976 39.1511 22.7047 39.0284 22.5294C38.9495 22.4155 38.8575 22.3147 38.7435 22.2343C38.5142 22.0722 38.2366 22.0751 38.0087 22.2416C37.9065 22.3162 37.8217 22.4067 37.7487 22.5104C37.6464 22.6536 37.5661 22.8085 37.5033 22.9721C37.3513 23.3607 37.2754 23.7624 37.2812 24.1715L37.2798 24.17ZM27.0333 1.63471C27.0186 1.63471 26.9909 1.63617 26.9631 1.63763C26.4957 1.66247 26.1684 2.02476 26.1158 2.40458C26.0968 2.54337 26.0983 2.67777 26.1261 2.81363C26.1889 3.11456 26.3656 3.32347 26.6461 3.44326C26.7908 3.50461 26.9441 3.52799 27.1034 3.5163C27.7111 3.47101 28.0938 2.95241 27.958 2.3593C27.8776 2.00723 27.5767 1.63471 27.0318 1.63471H27.0333Z" fill="#F9B50B"></path><path d="M150 34.6546C149.89 34.6502 149.781 34.6415 149.671 34.6415C147.755 34.6415 145.838 34.6415 143.921 34.6415C143.848 34.6415 143.775 34.6415 143.701 34.6415C143.499 34.6415 143.477 34.6415 143.445 34.4179C143.346 33.7284 143.236 33.0418 143.134 32.3523C143.033 31.6817 142.938 31.0112 142.837 30.3407C142.737 29.6701 142.633 29.0011 142.532 28.3305C142.449 27.7783 142.371 27.2247 142.288 26.6724C142.206 26.129 142.122 25.5856 142.04 25.0421C141.975 24.617 141.916 24.1904 141.853 23.7639C141.788 23.3388 141.723 22.9122 141.658 22.4871C141.594 22.062 141.534 21.6354 141.47 21.2088C141.417 20.8641 141.363 20.5207 141.308 20.1774C141.306 20.1658 141.286 20.1453 141.277 20.1468C141.263 20.1497 141.244 20.1643 141.236 20.1774C141.201 20.2519 141.169 20.3279 141.137 20.4039C139.23 25.048 137.326 29.692 135.419 34.3347C135.378 34.4355 135.349 34.5421 135.28 34.6225C135.029 34.6488 134.316 34.6531 132.879 34.64C132.816 34.64 132.752 34.6327 132.7 34.6298C132.629 34.5713 132.613 34.4968 132.586 34.4296C132.359 33.8497 132.132 33.2697 131.906 32.6897C130.373 28.7556 128.841 24.8201 127.308 20.886C127.215 20.6478 127.118 20.4097 127.022 20.1731C127.018 20.1614 126.991 20.157 126.975 20.1526C126.971 20.1526 126.962 20.1614 126.959 20.1672C126.955 20.1745 126.952 20.1833 126.95 20.1921C126.933 20.3002 126.915 20.4083 126.898 20.5178C126.788 21.2424 126.68 21.967 126.572 22.6916C126.49 23.2438 126.411 23.7975 126.328 24.3497C126.227 25.0202 126.122 25.6893 126.023 26.3598C125.94 26.912 125.862 27.4657 125.779 28.0179C125.678 28.6884 125.573 29.3575 125.474 30.028C125.39 30.5803 125.313 31.1339 125.23 31.6861C125.146 32.2383 125.06 32.7905 124.977 33.3427C124.918 33.7328 124.86 34.1214 124.802 34.5114C124.797 34.5377 124.79 34.5655 124.778 34.5889C124.771 34.6035 124.753 34.6181 124.739 34.6225C124.714 34.6312 124.685 34.6356 124.658 34.6356C124.585 34.6371 124.512 34.6371 124.438 34.6371C122.485 34.6371 120.531 34.6371 118.578 34.6371C118.486 34.6371 118.396 34.6327 118.304 34.6298C118.276 34.6298 118.235 34.5801 118.238 34.5523C118.245 34.4793 118.25 34.4063 118.263 34.3332C118.381 33.6378 118.502 32.9439 118.621 32.2486C118.721 31.6525 118.819 31.0565 118.92 30.4605C119.038 29.7651 119.16 29.0712 119.278 28.3758C119.377 27.7885 119.475 27.2013 119.575 26.614C119.658 26.1261 119.743 25.6396 119.826 25.1517C119.906 24.6827 119.985 24.2124 120.065 23.7434C120.152 23.238 120.238 22.7325 120.324 22.227C120.404 21.7479 120.485 21.2702 120.565 20.791C120.648 20.3031 120.732 19.8166 120.815 19.3287C120.897 18.8495 120.977 18.3718 121.057 17.8927C121.141 17.4047 121.222 16.9168 121.306 16.4303C121.389 15.9424 121.471 15.4545 121.554 14.968C121.636 14.4888 121.716 14.0111 121.797 13.532C121.881 13.0353 121.965 12.5386 122.049 12.0419C122.133 11.554 122.217 11.0675 122.299 10.5796C122.363 10.1998 122.426 9.82139 122.49 9.44156C122.501 9.37874 122.507 9.31301 122.555 9.26334C122.572 9.25749 122.588 9.24727 122.606 9.24727C124.724 9.24581 126.842 9.24435 128.961 9.24435C128.987 9.24435 129.015 9.25311 129.042 9.25749C129.105 9.30716 129.117 9.38313 129.142 9.44887C129.333 9.95433 129.522 10.4612 129.711 10.9667C130.759 13.7526 131.806 16.5399 132.854 19.3258C133.247 20.3717 133.641 21.4177 134.036 22.4622C134.062 22.5309 134.091 22.5966 134.12 22.6638C134.123 22.6697 134.135 22.677 134.141 22.6755C134.157 22.6697 134.18 22.6653 134.186 22.6521C134.22 22.5776 134.249 22.5002 134.278 22.4243C135.282 19.7392 136.285 17.0527 137.288 14.3676C137.894 12.746 138.499 11.1245 139.103 9.50292C139.21 9.21805 139.169 9.24142 139.467 9.24142C141.466 9.24142 143.466 9.24142 145.464 9.24142C145.492 9.24142 145.52 9.24142 145.546 9.24142C145.724 9.24142 145.74 9.25019 145.771 9.43718C145.877 10.0873 145.99 10.7373 146.101 11.3874C146.219 12.0828 146.341 12.7767 146.459 13.4721C146.56 14.0681 146.658 14.6641 146.76 15.2602C146.861 15.8562 146.966 16.4508 147.067 17.0468C147.167 17.6428 147.265 18.2389 147.366 18.8349C147.486 19.539 147.61 20.2432 147.73 20.9473C147.85 21.6515 147.965 22.3571 148.085 23.0612C148.224 23.8734 148.365 24.6857 148.504 25.4979C148.66 26.4197 148.814 27.3401 148.969 28.2619C149.113 29.1194 149.259 29.9784 149.405 30.8359C149.544 31.6481 149.684 32.4604 149.825 33.2726C149.858 33.4713 149.893 33.67 149.924 33.8687C149.939 33.968 149.944 34.0688 149.953 34.1696C149.956 34.2076 149.969 34.2397 150 34.2646V34.6502V34.6546Z" fill="#0E92DB"></path><path d="M0 9.24435H0.411963C6.61041 9.24435 12.8089 9.24435 19.0058 9.24435C19.1154 9.24435 19.2264 9.23412 19.3404 9.25896C19.3404 9.28525 19.3506 9.31447 19.3418 9.33638C19.3155 9.40504 19.2849 9.47078 19.2542 9.53798C18.4639 11.2209 17.6735 12.9038 16.8817 14.5867C16.8438 14.6685 16.8175 14.7591 16.7386 14.8278C16.7094 14.8307 16.6728 14.838 16.6378 14.8395C16.5457 14.8409 16.4537 14.8395 16.3631 14.8395C13.2646 14.8395 10.1647 14.8395 7.0662 14.8395C6.9654 14.8395 6.8646 14.8424 6.7638 14.8453C6.71997 14.8453 6.68199 14.8891 6.68053 14.9373C6.67761 15.0191 6.67468 15.1024 6.67468 15.1842C6.67468 16.3661 6.67468 17.5494 6.67468 18.7312C6.67468 19.1096 6.65277 19.0774 7.01068 19.0774C9.45909 19.0774 11.9075 19.0774 14.3544 19.0774C14.6948 19.0774 14.7226 19.0789 14.7226 19.1139C14.7226 19.2381 14.6481 19.336 14.5984 19.4412C13.8256 21.092 13.0499 22.7413 12.2742 24.392C12.1325 24.6944 12.1865 24.6623 11.8476 24.6638C10.2436 24.6638 8.63809 24.6638 7.03406 24.6638C6.94202 24.6638 6.85145 24.6681 6.75941 24.6725C6.72581 24.6725 6.68783 24.712 6.68345 24.7412C6.68053 24.7689 6.67468 24.7952 6.67468 24.823C6.67468 24.915 6.67468 25.0056 6.67468 25.0976C6.67468 28.1494 6.67468 31.2011 6.67468 34.2529C6.67468 34.3537 6.6703 34.4545 6.66738 34.5553C6.66738 34.5845 6.62355 34.6283 6.59872 34.6312C6.57096 34.6342 6.54467 34.6371 6.51691 34.6385C6.4614 34.6385 6.40735 34.6385 6.35183 34.6385C4.33438 34.6385 2.31693 34.6385 0.300938 34.6385C0.201599 34.6385 0.0993387 34.6166 0.00146086 34.6502V9.24435H0Z" fill="#0E92DB"></path><path d="M103.486 8.53437C104.225 8.53437 104.811 8.57089 105.395 8.62933C106.476 8.73743 107.533 8.95656 108.563 9.30132C110.007 9.78487 111.351 10.4671 112.567 11.3918C114.349 12.746 115.683 14.4553 116.593 16.4961C117.012 17.4369 117.309 18.4171 117.493 19.431C117.668 20.3907 117.73 21.3578 117.705 22.3322C117.627 25.3898 116.625 28.107 114.681 30.4707C113.553 31.841 112.181 32.9133 110.603 33.724C109.43 34.3259 108.199 34.7613 106.907 35.0257C106.351 35.1396 105.788 35.2185 105.222 35.2726C104.316 35.3573 103.409 35.3661 102.501 35.3105C100.021 35.1586 97.7099 34.4603 95.6062 33.1236C93.6837 31.9023 92.2009 30.2706 91.1287 28.2648C90.5545 27.1925 90.1367 26.0618 89.8826 24.8712C89.7978 24.4768 89.735 24.0794 89.6853 23.6791C89.6021 22.9955 89.5728 22.3103 89.5845 21.6208C89.5918 21.1621 89.6298 20.7063 89.681 20.2505C89.7861 19.3185 89.9877 18.4069 90.2989 17.5231C91.2178 14.9154 92.7736 12.7753 95.0233 11.1566C96.4141 10.1545 97.9524 9.4591 99.6104 9.02814C100.196 8.87621 100.791 8.76373 101.391 8.68484C102.138 8.58696 102.887 8.54021 103.488 8.53729L103.486 8.53437ZM110.805 21.9641C110.809 21.6149 110.763 21.0437 110.698 20.6785C110.563 19.9145 110.302 19.1928 109.912 18.5208C108.995 16.9373 107.65 15.8781 105.921 15.2967C105.239 15.0674 104.535 14.9578 103.816 14.9417C103.153 14.9271 102.497 14.9855 101.854 15.1462C99.6031 15.7116 97.9158 17.1973 97.0437 19.1884C96.7618 19.8312 96.5923 20.5047 96.5251 21.2015C96.4856 21.612 96.4842 22.024 96.5076 22.4374C96.5339 22.8786 96.5981 23.3125 96.715 23.7376C97.1387 25.2846 97.9903 26.5468 99.2701 27.5124C100.398 28.3627 101.678 28.8199 103.083 28.9236C103.743 28.9733 104.402 28.9383 105.054 28.8112C105.935 28.6373 106.757 28.3145 107.52 27.8411C109.362 26.6973 110.804 24.6243 110.805 21.9655V21.9641Z" fill="#0E92DB"></path><path d="M66.7746 21.9203C66.7746 17.8415 66.7746 13.7643 66.7746 9.68553C66.7746 9.58473 66.7746 9.48393 66.7775 9.38313C66.7804 9.28233 66.8126 9.24873 66.9061 9.24581C66.9879 9.24435 67.0712 9.24435 67.153 9.24435C70.2792 9.24435 73.4055 9.24581 76.5317 9.24435C78.4557 9.24289 80.2715 9.67823 81.9807 10.5635C83.5891 11.3962 84.9843 12.4948 86.1325 13.8972C87.4078 15.4545 88.277 17.2148 88.7358 19.1738C88.857 19.691 88.9344 20.2169 88.987 20.7457C89.0498 21.3856 89.0513 22.0269 89.0235 22.6682C89.0016 23.1722 88.9388 23.6733 88.8468 24.1685C88.5006 26.0253 87.7804 27.7243 86.692 29.2669C85.5087 30.944 83.9996 32.2559 82.1911 33.2244C81.3803 33.6583 80.5345 34.006 79.6448 34.2412C79.0941 34.3858 78.5375 34.491 77.9721 34.5553C77.4243 34.6166 76.8765 34.6415 76.3257 34.6415C73.2725 34.6415 70.2193 34.6415 67.1661 34.6415C67.0653 34.6415 66.9645 34.6385 66.8637 34.6342C66.8316 34.6342 66.7921 34.5947 66.7877 34.5655C66.7834 34.5392 66.7775 34.5114 66.7775 34.4837C66.7761 34.3829 66.7761 34.2821 66.7761 34.1813C66.7761 30.0938 66.7761 26.0063 66.7761 21.9203H66.7746ZM73.3835 21.9509V28.5774C73.3835 28.6592 73.3835 28.7425 73.3835 28.8243C73.3835 28.8608 73.3835 28.8973 73.3865 28.9339C73.3908 29.0011 73.423 29.0376 73.4858 29.0405C73.5311 29.0434 73.5778 29.0449 73.6231 29.0449C74.0731 29.0449 74.5216 29.0434 74.9715 29.0449C75.4127 29.0449 75.8495 29.0069 76.2863 28.9456C77.0547 28.8375 77.788 28.6139 78.4849 28.2721C79.319 27.8616 80.0407 27.3079 80.6265 26.5833C81.1875 25.8894 81.5746 25.1064 81.8244 24.2518C82.026 23.5608 82.1151 22.8538 82.137 22.1365C82.1502 21.6778 82.1151 21.2205 82.0538 20.7662C81.9544 20.0255 81.7455 19.3155 81.4285 18.6392C81.0224 17.7714 80.457 17.0234 79.7135 16.4157C79.1554 15.9585 78.5331 15.6123 77.8625 15.3522C77.0868 15.0513 76.2804 14.8891 75.4507 14.857C74.8926 14.8351 74.3316 14.8424 73.7736 14.8424C73.328 14.8424 73.3865 14.7854 73.3865 15.2427C73.385 17.4792 73.3865 19.7144 73.3865 21.9509H73.3835Z" fill="#0E92DB"></path><path d="M42.8194 17.9365C42.8194 15.1681 42.8194 12.3998 42.8194 9.63148C42.8194 9.53068 42.8237 9.42988 42.8267 9.32908C42.8267 9.29402 42.8617 9.25749 42.8939 9.25311C42.9216 9.25019 42.9479 9.24581 42.9757 9.24435C43.0487 9.24435 43.1218 9.24435 43.1963 9.24435C46.324 9.24435 49.4502 9.24435 52.5779 9.24435C53.0191 9.24435 53.4588 9.2648 53.8956 9.31155C55.0424 9.43572 56.1483 9.71621 57.2074 10.1764C59.1489 11.0208 60.8143 12.2391 62.1627 13.8753C63.4672 15.4589 64.3481 17.2543 64.8024 19.2542C64.9281 19.8079 65.007 20.3703 65.0522 20.9386C65.0858 21.3593 65.099 21.78 65.0902 22.2022C65.0581 23.7011 64.7659 25.1488 64.2122 26.5424C62.7967 30.1113 60.0824 32.5437 57.016 33.7985C56.2929 34.0951 55.5449 34.3055 54.7751 34.4457C54.0242 34.5816 53.266 34.64 52.5034 34.6415C50.6058 34.6458 48.7066 34.6429 46.809 34.6415C46.5475 34.6415 46.5723 34.6634 46.4598 34.4223C45.6461 32.6795 44.8324 30.9352 44.0202 29.1924C43.6594 28.4196 43.3 27.6483 42.9392 26.8755C42.9114 26.8171 42.8866 26.7586 42.8588 26.7002C42.8296 26.6418 42.8179 26.579 42.8179 26.5147C42.8179 26.4329 42.8179 26.3496 42.8179 26.2678C42.8179 23.4907 42.8179 20.7136 42.8179 17.9365H42.8194ZM49.4225 21.9232C49.4225 24.1583 49.4225 26.3934 49.4225 28.63C49.4225 28.722 49.4225 28.8126 49.4239 28.9046C49.4239 28.9324 49.4254 28.9616 49.4356 28.985C49.4458 29.0084 49.4619 29.0332 49.494 29.0361C49.5481 29.039 49.6036 29.0449 49.6577 29.0449C50.0974 29.0449 50.5371 29.0434 50.9768 29.0449C51.4355 29.0449 51.8913 29.0084 52.3457 28.9426C53.2455 28.8141 54.0914 28.5307 54.8817 28.0851C56.0343 27.435 56.8948 26.5103 57.4645 25.3168C57.8648 24.4797 58.0825 23.5944 58.1511 22.6726C58.1964 22.078 58.1891 21.4835 58.1146 20.8889C58.0445 20.3221 57.9145 19.7728 57.7202 19.2367C57.4397 18.4624 57.0409 17.7568 56.4989 17.1345C55.8561 16.3953 55.0716 15.8518 54.1761 15.4618C53.3259 15.0922 52.4348 14.895 51.5115 14.857C50.9257 14.8321 50.3384 14.8438 49.7526 14.8409C49.3859 14.8409 49.4225 14.8117 49.4195 15.1871C49.4195 15.2602 49.4195 15.3332 49.4195 15.4077V21.9217L49.4225 21.9232Z" fill="#0E92DB"></path></g><defs><clipPath id="clip0_1_2"><rect width="150" height="50.7694" fill="white"></rect></clipPath></defs></svg>