<svg xmlns="http://www.w3.org/2000/svg" width="200" height="115.021" viewBox="0 0 200 115.021">
  <g id="Novo_símbolo_11" data-name="Novo símbolo 11" transform="translate(-1235.834 -726.787)">
    <g id="Group_306" data-name="Group 306" transform="translate(1235.834 726.787)">
      <g id="Group_305" data-name="Group 305" transform="translate(0 0)">
        <path id="Path_39" data-name="Path 39" d="M1363.081,810.24a28.765,28.765,0,1,1,28.764-28.764,28.8,28.8,0,0,1-28.764,28.764m0-44.055a15.29,15.29,0,1,0,15.29,15.291,15.307,15.307,0,0,0-15.29-15.291" transform="translate(-1285.304 -739.809)" fill="#a1664f"/>
        <path id="Path_40" data-name="Path 40" d="M1389.179,732.342H1361.4a2.778,2.778,0,0,1,0-5.555h27.778a2.778,2.778,0,0,1,0,5.555" transform="translate(-1297.513 -726.787)" fill="#a1664f"/>
        <path id="Path_41" data-name="Path 41" d="M1392.086,807.705a2.778,2.778,0,1,1-2.779-2.777,2.778,2.778,0,0,1,2.779,2.777" transform="translate(-1311.53 -766.038)" fill="#a1664f"/>
        <path id="Path_42" data-name="Path 42" d="M1235.834,827.216v-.137c0-13.9,10.7-24.8,25.137-24.8,9.743,0,16.011,4.089,20.234,9.947l-9.947,7.7c-2.725-3.407-5.858-5.587-10.422-5.587-6.677,0-11.377,5.655-11.377,12.6v.135c0,7.155,4.7,12.74,11.377,12.74,4.973,0,7.9-2.318,10.764-5.792l9.946,7.087c-4.5,6.2-10.56,10.764-21.119,10.764a24.216,24.216,0,0,1-24.593-24.661" transform="translate(-1235.834 -764.709)" fill="#3b3936"/>
        <g id="Group_303" data-name="Group 303" transform="translate(111.111 38.889)">
          <path id="Path_43" data-name="Path 43" d="M1459.087,804.926h22.549c7.289,0,12.33,1.889,15.531,5.128,2.793,2.7,4.223,6.341,4.223,11v.134c0,7.219-3.881,12.008-9.809,14.505l11.95,16.46h-15.26l-10.178-14.3H1472.3v14.3h-13.216Zm21.936,22.667c4.5,0,7.085-2.159,7.085-5.6v-.134c0-3.712-2.725-5.6-7.153-5.6H1472.3v11.334Z" transform="translate(-1459.087 -804.926)" fill="#3b3936"/>
          <path id="Path_44" data-name="Path 44" d="M1559.552,804.927h38.889v11.13h-25.81v7.152h23.083V833.53h-23.083v7.489h25.81v11.13h-38.889Z" transform="translate(-1509.552 -804.927)" fill="#3b3936"/>
        </g>
        <g id="Group_304" data-name="Group 304" transform="translate(111.111 99.669)">
          <path id="Path_45" data-name="Path 45" d="M1465.851,927.349h1.569l6.764,14.949h-1.8l-1.738-3.923h-8.079l-1.76,3.923h-1.717Zm4.135,9.52-3.372-7.57-3.393,7.57Z" transform="translate(-1459.087 -927.2)" fill="#a2664e"/>
          <path id="Path_46" data-name="Path 46" d="M1495.3,927.562h1.569l9.351,11.9v-11.9h1.633V942.4h-1.336l-9.584-12.171V942.4H1495.3Z" transform="translate(-1477.278 -927.307)" fill="#a2664e"/>
          <path id="Path_47" data-name="Path 47" d="M1527.64,934.769v-.043a7.448,7.448,0,0,1,7.442-7.676,7.82,7.82,0,0,1,5.534,1.972l-1.082,1.272a6.314,6.314,0,0,0-4.516-1.7,5.8,5.8,0,0,0-5.641,6.085v.042c0,3.542,2.269,6.171,5.874,6.171a6.987,6.987,0,0,0,4.283-1.484v-3.689h-4.516v-1.506h6.127v5.916a8.991,8.991,0,0,1-5.958,2.269A7.279,7.279,0,0,1,1527.64,934.769Z" transform="translate(-1493.522 -927.05)" fill="#a2664e"/>
          <path id="Path_48" data-name="Path 48" d="M1562.364,927.562h10.729v1.527h-9.054v5.068h8.1v1.526h-8.1v5.2h9.16V942.4h-10.835Z" transform="translate(-1510.964 -927.307)" fill="#a2664e"/>
          <path id="Path_49" data-name="Path 49" d="M1590.911,927.562h1.675v13.295h8.355V942.4h-10.03Z" transform="translate(-1525.304 -927.307)" fill="#a2664e"/>
          <path id="Path_50" data-name="Path 50" d="M1615.324,940.028l1.039-1.23a7.067,7.067,0,0,0,5.089,2.1c1.993,0,3.308-1.06,3.308-2.523v-.042c0-1.378-.742-2.163-3.859-2.82-3.414-.742-4.982-1.845-4.982-4.284v-.042c0-2.332,2.056-4.05,4.876-4.05a7.742,7.742,0,0,1,5.216,1.824l-.976,1.293a6.522,6.522,0,0,0-4.284-1.611c-1.93,0-3.16,1.06-3.16,2.4v.043c0,1.4.764,2.184,4.029,2.884,3.308.72,4.834,1.929,4.834,4.2v.042c0,2.545-2.12,4.2-5.067,4.2A8.683,8.683,0,0,1,1615.324,940.028Z" transform="translate(-1537.567 -927.093)" fill="#a2664e"/>
        </g>
      </g>
    </g>
  </g>
</svg>
