<svg width="238" height="32" viewBox="0 0 238 32" fill="none" xmlns="http://www.w3.org/2000/svg">
<path d="M19.9568 4.10278C14.537 1.90153 7.71768 0.486437 0.243194 0.0147405L0 0V4.94299L0.129042 5.00686C4.34771 7.06071 6.96824 11.2224 6.96824 15.8559C6.96824 20.4893 4.34771 24.6511 0.129042 26.7049L0 26.7688V31.5447L0.243194 31.53C7.92117 31.0828 14.7405 29.7267 19.9568 27.6041C27.2824 24.6265 31.3124 20.4549 31.3124 15.851C31.3124 11.247 27.2774 7.07545 19.9568 4.09786V4.10278ZM21.3663 15.8559C21.3663 13.2272 20.3439 10.6476 18.4132 8.38244L18.8401 7.80265C24.3938 10.0923 27.5752 13.0208 27.5752 15.8559C27.5752 18.691 24.3938 21.6194 18.8401 23.9091L18.4132 23.3293C20.3489 21.0642 21.3663 18.4846 21.3663 15.8559ZM17.5149 15.8559C17.5149 19.1135 15.1574 22.268 10.8792 24.7346C10.0652 25.2014 9.18677 25.6436 8.26859 26.0416L7.80701 25.4864C9.75256 22.6316 10.7849 19.3101 10.7849 15.8559C10.7849 12.4017 9.75753 9.08016 7.80701 6.22541L8.26362 5.67019C9.1818 6.06818 10.0603 6.50548 10.8742 6.97718C15.1525 9.44376 17.5099 12.5982 17.5099 15.8559H17.5149Z" fill="#101828"/>
<path d="M47.4143 20.9801C45.8857 20.9801 44.635 20.4151 43.6821 19.28C42.7291 18.1745 42.2378 16.7152 42.2378 14.907C42.2378 13.0989 42.7291 11.6445 43.6821 10.5094C44.635 9.37442 45.8361 8.80937 47.3349 8.80937C49.8165 8.80937 51.4494 10.4013 52.2137 13.5853L56.2189 12.5584C55.1568 7.80701 52.1045 5.13898 47.4987 5.13898C44.7442 5.13898 42.4562 6.0578 40.6843 7.89054C38.8877 9.75276 37.9844 12.0719 37.9844 14.907C37.9844 17.7421 38.8579 20.1153 40.6 21.9235C42.342 23.7317 44.5804 24.6505 47.33 24.6505C52.1541 24.6505 55.1519 22.3559 56.3529 17.7962L52.1541 17.123C51.4444 19.6879 49.8661 20.9801 47.4094 20.9801H47.4143Z" fill="#101828"/>
<path d="M67.0452 5.13898C64.2361 5.13898 61.8935 6.0578 60.067 7.89054C58.2406 9.75276 57.3125 12.0719 57.3125 14.907C57.3125 17.7421 58.2406 20.0613 60.067 21.894C61.8935 23.7268 64.2361 24.6456 67.0452 24.6456C69.8543 24.6456 72.1969 23.7268 74.0234 21.894C75.8498 20.0613 76.7779 17.7372 76.7779 14.907C76.7779 12.0768 75.8498 9.75276 74.0234 7.89054C72.1969 6.0578 69.8543 5.13898 67.0452 5.13898ZM70.9959 19.3046C69.9883 20.4102 68.6533 20.9752 67.0452 20.9752C65.4372 20.9752 64.1269 20.4102 63.1194 19.3046C62.1119 18.1991 61.5907 16.7152 61.5907 14.907C61.5907 13.0989 62.1069 11.615 63.1194 10.48C64.1269 9.37442 65.4372 8.80937 67.0452 8.80937C68.6533 8.80937 69.9883 9.37442 70.9959 10.48C72.0034 11.615 72.5245 13.0989 72.5245 14.907C72.5245 16.7152 72.0083 18.1991 70.9959 19.3046Z" fill="#101828"/>
<path d="M91.0387 16.3094C91.0387 19.3312 89.5696 20.9773 86.9243 20.9773C84.2789 20.9773 82.8098 19.3312 82.8098 16.3094V5.51447H78.75V16.7664C78.75 19.2772 79.4597 21.218 80.8742 22.5938C82.2639 23.9696 84.2789 24.6427 86.9243 24.6427C89.5696 24.6427 91.5847 23.9696 93.0041 22.5938C94.3938 21.2426 95.1035 19.3018 95.1035 16.7664V5.51447H91.0437V16.3094H91.0387Z" fill="#101828"/>
<path d="M109.015 16.7959C111.849 16.2308 113.487 14.3146 113.487 11.4795C113.487 9.61724 112.861 8.16284 111.606 7.10644C110.35 6.05004 108.687 5.51447 106.642 5.51447H98.1406V24.2693H102.2V17.3609H104.761L105.332 18.5205C106.34 20.7856 107.456 22.3236 108.628 23.1343C109.799 23.9696 111.243 24.3774 112.961 24.3774C113.422 24.3774 113.804 24.3234 114.132 24.2153V20.4908C113.943 20.5449 113.725 20.5744 113.452 20.5744C111.844 20.5744 110.563 19.7391 109.01 16.7959H109.015ZM106.211 13.9067H102.205V8.99814H106.156C108.201 8.99814 109.238 9.80887 109.238 11.4549C109.238 13.1009 108.231 13.9116 106.211 13.9116V13.9067Z" fill="#101828"/>
<path d="M114.461 9.18485H120.298V24.2693H124.357V9.18485H130.164V5.51447H114.461V9.18485Z" fill="#101828"/>
<path d="M142 15.9557L137.23 5.51447H131.562V24.2693H135.622V10.3739L140.149 20.3287H143.747L148.273 10.3739V24.2693H152.333V5.51447H146.636L142 15.9557Z" fill="#101828"/>
<path d="M160.264 5.51447L153.504 24.2693H157.757L159.286 19.7636H166.507L168.086 24.2693H172.339L165.579 5.51447H160.264ZM160.348 16.6042L162.83 9.29295L165.391 16.6042H160.348Z" fill="#101828"/>
<path d="M182.279 13.2608L179.773 12.8284C177.783 12.4795 176.8 11.7229 176.8 10.5633C176.8 9.26611 178.055 8.43081 179.827 8.43081C182.2 8.43081 183.535 9.61988 183.833 11.9636L187.838 11.4772C187.54 7.37441 184.949 5.13385 179.961 5.13385C177.783 5.13385 176.035 5.67434 174.73 6.72583C173.395 7.8068 172.74 9.1531 172.74 10.7746C172.74 13.7964 174.676 15.6045 179.063 16.3612L181.569 16.7936C183.287 17.1179 184.13 17.8451 184.13 18.9801C184.13 20.464 182.741 21.3533 180.478 21.3533C177.971 21.3533 176.333 20.3264 176.333 18.7099C176.333 18.2529 176.413 17.8205 176.552 17.4667L172.656 16.5774C172.412 17.3587 172.273 18.1448 172.273 18.872C172.273 20.5721 172.983 21.9773 174.427 23.0288C175.872 24.1098 177.862 24.6503 180.398 24.6503C182.716 24.6503 184.597 24.0852 186.041 22.9748C187.461 21.8692 188.165 20.4099 188.165 18.6018C188.165 15.7126 186.423 13.988 182.279 13.2608Z" fill="#101828"/>
<path d="M188.758 9.18485H194.589V24.2693H198.654V9.18485H204.456V5.51447H188.758V9.18485Z" fill="#101828"/>
<path d="M209.923 16.5502H217.745V13.0714H209.923V8.99323H219.492V5.51447H205.863V24.2693H219.626V20.7856H209.923V16.5502Z" fill="#101828"/>
<path d="M237.273 20.5697C235.665 20.5697 234.385 19.7344 232.831 16.7912C235.665 16.2261 237.303 14.3099 237.303 11.4748C237.303 9.61254 236.678 8.15814 235.422 7.10174C234.166 6.04534 232.504 5.50977 230.459 5.50977H221.957V24.2646H226.017V17.3562H228.578L229.149 18.5158C230.156 20.7809 231.273 22.3189 232.444 23.1296C233.615 23.9649 235.06 24.3727 236.777 24.3727C237.239 24.3727 237.621 24.3187 237.948 24.2106V20.4861C237.76 20.5402 237.541 20.5697 237.268 20.5697H237.273ZM230.022 13.9069H226.017V8.99835H229.968C232.012 8.99835 233.05 9.80908 233.05 11.4551C233.05 13.1011 232.042 13.9119 230.022 13.9119V13.9069Z" fill="#101828"/>
</svg>
